# xmcd
# 
# Track frame offsets:
#     150
#     19680
#     44484
#     63187
#     80121
#     98899
#     111539
#     127873
#     140187
# 
# Disc length: 2036
# 
# Revision: 1
# Processed by: cddbd v1.5.2PL0 Copyright (c) Steve Scherf et al.
# Submitted via: fre:ac v1.0.31
# 
DISCID=7f07f209
DTITLE=Christmas - Mindi Abair All I Got For Christmas Is The Blues
DYEAR=2018
DGENRE=Christmas
TTITLE0=All I Got for Christmas is the Blues
TTITLE1=I Can't Wait for Christmas
TTITLE2=Merry Christmas Baby
TTITLE3=Christmas (Baby Please Come Home)
TTITLE4=The Best Part of Christmas
TTITLE5=Rockin' Around the Christmas Tree
TTITLE6=The Christmas Song (Chestnuts Roasting)
TTITLE7=Run Run Rudolph
TTITLE8=Christmas Fool
EXTD=
EXTT0=
EXTT1=
EXTT2=
EXTT3=
EXTT4=
EXTT5=
EXTT6=
EXTT7=
EXTT8=
PLAYORDER=
